
<svg width="70px" height="70px" viewBox="-270 -95 90 90" version="1.1" xmlns="http://www.w3.org/2000/svg" xmlns:xlink="http://www.w3.org/1999/xlink">
    <path d="M-193.2,-18.2 C-184.4,-26.9666667 -180,-37.5666667 -180,-50 C-180,-62.4333333 -184.4,-73.05 -193.2,-81.85 C-201.966667,-90.6166667 -212.566667,-95 -225,-95 C-237.433333,-95 -248.05,-90.6166667 -256.85,-81.85 C-265.616667,-73.05 -270,-62.4333333 -270,-50 C-270,-37.5666667 -265.616667,-26.9666667 -256.85,-18.2 C-248.05,-9.4 -237.433333,-5 -225,-5 C-212.566667,-5 -201.966667,-9.4 -193.2,-18.2 L-193.2,-18.2 Z M-225,-87.4 C-214.666667,-87.4 -205.85,-83.75 -198.55,-76.45 C-191.216667,-69.15 -187.55,-60.3333333 -187.55,-50 C-187.55,-39.6666667 -191.216667,-30.85 -198.55,-23.55 C-205.85,-16.2166667 -214.666667,-12.55 -225,-12.55 C-235.333333,-12.55 -244.15,-16.2166667 -251.45,-23.55 C-258.75,-30.85 -262.4,-39.6666667 -262.4,-50 C-262.4,-60.3333333 -258.75,-69.15 -251.45,-76.45 C-244.15,-83.75 -235.333333,-87.4 -225,-87.4 L-225,-87.4 Z M-236.05,-33.35 C-236.716667,-32.9166667 -237.116667,-32.2833333 -237.25,-31.45 C-237.383333,-30.6833333 -237.216667,-29.95 -236.75,-29.25 C-236.316667,-28.5833333 -235.683333,-28.1833333 -234.85,-28.05 C-220.55,-25.45 -210.783333,-29.15 -205.55,-39.15 C-205.183333,-39.8833333 -205.1,-40.6166667 -205.3,-41.35 C-205.533333,-42.15 -206,-42.75 -206.7,-43.15 C-207.466667,-43.5166667 -208.216667,-43.5833333 -208.95,-43.35 C-209.75,-43.15 -210.35,-42.6833333 -210.75,-41.95 C-214.983333,-34.5166667 -222.666667,-31.8166667 -233.8,-33.85 C-234.6,-33.9833333 -235.35,-33.8166667 -236.05,-33.35 L-236.05,-33.35 Z M-239.75,-53.6 C-238.55,-54.7333333 -237.95,-56.15 -237.95,-57.85 C-237.95,-59.6166667 -238.55,-61.0833333 -239.75,-62.25 C-240.916667,-63.4166667 -242.35,-64 -244.05,-64 C-245.75,-64 -247.216667,-63.4166667 -248.45,-62.25 C-249.616667,-61.0833333 -250.2,-59.6166667 -250.2,-57.85 C-250.2,-56.15 -249.616667,-54.7333333 -248.45,-53.6 C-247.216667,-52.3666667 -245.75,-51.75 -244.05,-51.75 C-242.35,-51.75 -240.916667,-52.3666667 -239.75,-53.6 L-239.75,-53.6 Z M-199.9,-57.85 C-199.9,-59.6166667 -200.5,-61.0833333 -201.7,-62.25 C-202.866667,-63.4166667 -204.3,-64 -206,-64 C-207.7,-64 -209.166667,-63.4166667 -210.4,-62.25 C-211.566667,-61.0833333 -212.15,-59.6166667 -212.15,-57.85 C-212.15,-56.15 -211.566667,-54.7333333 -210.4,-53.6 C-209.166667,-52.3666667 -207.7,-51.75 -206,-51.75 C-204.3,-51.75 -202.866667,-52.3666667 -201.7,-53.6 C-200.5,-54.7333333 -199.9,-56.15 -199.9,-57.85 Z" id="Shape" stroke="none" fill="#F24440" fill-rule="nonzero"></path>
</svg>
